<?xml version="1.0" encoding="UTF-8"?>
<svg id="Layer_2" xmlns="http://www.w3.org/2000/svg" viewBox="0 0 1338.39 1338.4">
  <defs>
    <style>
      .cls-1 {
        fill: #231f20;
      }
    </style>
  </defs>
  <g id="Layer_1-2" data-name="Layer_1">
    <path class="cls-1" d="M519.35,397.98l-66.73-164.18c-8.05-19.8-35.22-21.97-46.31-3.7l-132.64,218.49c-12.19,20.08,6.4,44.75,29.06,38.57l199.36-54.3c15.05-4.1,23.13-20.43,17.26-34.88ZM1136.17,1019.77c-13.08,0-23.73,10.65-23.73,23.74s10.65,23.73,23.73,23.73,23.73-10.65,23.73-23.73-10.64-23.74-23.73-23.74ZM1143.78,1056.85l-5.01-6.49h-9.26v6.49h-10.37v-26.6h25.63c5.48-.06,10.13,4.55,10.05,10.05,0,2-.54,3.82-1.6,5.45-1.05,1.6-2.46,2.83-4.2,3.64l5.8,7.46h-11.04ZM1142.15,1038.03h-12.64v4.53h12.64c.64,0,1.17-.22,1.61-.65.45-.46.67-.99.67-1.61,0-1.26-1.01-2.27-2.28-2.27ZM519.35,397.98l-66.73-164.18c-8.05-19.8-35.22-21.97-46.31-3.7l-132.64,218.49c-12.19,20.08,6.4,44.75,29.06,38.57l199.36-54.3c15.05-4.1,23.13-20.43,17.26-34.88ZM1136.17,1019.77c-13.08,0-23.73,10.65-23.73,23.74s10.65,23.73,23.73,23.73,23.73-10.65,23.73-23.73-10.64-23.74-23.73-23.74ZM1143.78,1056.85l-5.01-6.49h-9.26v6.49h-10.37v-26.6h25.63c5.48-.06,10.13,4.55,10.05,10.05,0,2-.54,3.82-1.6,5.45-1.05,1.6-2.46,2.83-4.2,3.64l5.8,7.46h-11.04ZM1142.15,1038.03h-12.64v4.53h12.64c.64,0,1.17-.22,1.61-.65.45-.46.67-.99.67-1.61,0-1.26-1.01-2.27-2.28-2.27ZM0,0v1338.4h1338.39V0H0ZM1136.17,1077c-18.47,0-33.5-15.02-33.5-33.49s15.03-33.5,33.5-33.5,33.5,15.03,33.5,33.5-15.03,33.49-33.5,33.49ZM1172.4,627.81l-100.06,430.69c-1.84,7.89-10.53,12.01-17.8,8.44l-186.94-91.93c-5.65-2.77-12.48-.95-15.99,4.28l-135.27,201.64c-11.34,16.91-35.98,17.54-48.17,1.25l-384.31-513.38c-5.56-7.44-1.42-18.14,7.71-19.89l187.46-35.85c4.63-.88,9.36.89,12.26,4.6l167.62,214.17c8.97,11.46,27.01,1.05,21.56-12.45l-38.38-95.22c-2.96-7.35,1.53-15.57,9.32-17.05l189.11-35.91c5.38-1.02,10.79,1.56,13.4,6.37l87.29,161.04c5.62,10.37,21.14,7.99,23.39-3.58l36.77-188.73c1-5.17,5.13-9.17,10.33-10.01l146.44-23.74c8.83-1.43,16.28,6.55,14.26,15.26ZM1220.7,414.88c0,12.55-8.98,23.32-21.34,25.57l-389.76,71.12c-17.5,3.19-26.7,22.63-18.06,38.19l38.1,68.66c3.42,6.16-.22,13.84-7.14,15.11l-184.88,33.73c-4.79.88-9.54-1.73-11.37-6.24l-35.93-88.41c-4.64-11.4-16.64-18-28.76-15.79l-413.2,75.4c-15.96,2.91-30.66-9.35-30.66-25.58v-58.98c0-6.56,2.09-12.95,5.97-18.24L396.32,157.85c9.48-12.89,26.83-17.14,41.19-10.07l172.89,85.19c4.75,2.34,8.67,6.07,11.24,10.7l65.62,118.22c5.81,10.47,18.02,15.62,29.57,12.47l471.03-128.31c16.54-4.5,32.84,7.95,32.84,25.09v143.74ZM1136.17,1019.77c-13.08,0-23.73,10.65-23.73,23.74s10.65,23.73,23.73,23.73,23.73-10.65,23.73-23.73-10.64-23.74-23.73-23.74ZM1154.82,1056.85h-11.04l-5.01-6.49h-9.26v6.49h-10.37v-26.6h25.63c5.48-.06,10.13,4.55,10.05,10.05,0,2-.54,3.82-1.6,5.45-1.05,1.6-2.46,2.83-4.2,3.64l5.8,7.46ZM1142.15,1038.03h-12.64v4.53h12.64c.64,0,1.17-.22,1.61-.65.45-.46.67-.99.67-1.61,0-1.26-1.01-2.27-2.28-2.27ZM452.62,233.8c-8.05-19.8-35.22-21.97-46.31-3.7l-132.64,218.49c-12.19,20.08,6.4,44.75,29.06,38.57l199.36-54.3c15.05-4.1,23.13-20.43,17.26-34.88l-66.73-164.18ZM519.35,397.98l-66.73-164.18c-8.05-19.8-35.22-21.97-46.31-3.7l-132.64,218.49c-12.19,20.08,6.4,44.75,29.06,38.57l199.36-54.3c15.05-4.1,23.13-20.43,17.26-34.88ZM519.35,397.98l-66.73-164.18c-8.05-19.8-35.22-21.97-46.31-3.7l-132.64,218.49c-12.19,20.08,6.4,44.75,29.06,38.57l199.36-54.3c15.05-4.1,23.13-20.43,17.26-34.88Z"/>
  </g>
</svg>