<?xml version="1.0" encoding="UTF-8"?>
<svg id="Layer_1" xmlns="http://www.w3.org/2000/svg" viewBox="0 0 1473.14 1473.18">
  <g>
    <path d="M.05,795.3c185.08,83.72,369.85,167.3,555.1,251.09,7.19-13.56,14.12-26.64,21.14-39.89-3.79-1.92-6.96-3.53-10.59-5.37,21.97-39.26,44.13-77.98,68.23-116.34,2.71,4.17,5.12,7.87,7.52,11.58,2.41,3.74,4.8,7.5,7.21,11.25,2.41,3.74,4.8,7.5,7.27,11.21,2.38,3.58,4.17,7.61,7.83,11.06,14.28-55.48,28.4-110.3,42.51-165.12l-.97-.64c-49.92,28.41-99.85,56.81-150.74,85.77,18.62,5.09,36.06,9.87,54.53,14.92-24.03,38.35-47.58,75.92-71.31,113.79-2.11-.79-3.69-1.31-5.22-1.97-12.09-5.26-24.16-10.57-36.26-15.81-33.63-14.58-67.28-29.11-100.91-43.71-31.58-13.71-63.14-27.49-94.71-41.22-40.37-17.56-80.68-35.24-121.16-52.55-9.27-3.96-13.92-16.06-4.51-25.07,19.2-18.39,37.93-37.27,56.87-55.93.83-.82,1.8-1.51,2.87-2.39,6.08,2.84,12.08,5.63,18.26,8.52,41.79-42.77,83.34-85.3,125.13-128.07-4.46-3.64-8.37-6.84-11.87-9.7,4.56-4.83,8.68-9.44,13.06-13.78,35.96-35.61,71.95-71.19,107.97-106.73,40.78-40.25,81.61-80.45,122.4-120.69,37-36.51,73.98-73.04,110.96-109.57,31.24-30.86,62.49-61.73,93.69-92.63,5.13-5.08,10.98-8.86,18.11-10.08,5.37-.92,10.84-1.26,16.28-1.78,5.78-.56,11.58-.98,17.36-1.54,7.98-.77,15.95-1.64,23.94-2.39,9.64-.89,18.93,5.25,20.67,16.6,2.15,13.98,3.74,28.04,5.52,42.07,2.13,16.74,4.2,33.5,6.31,50.24,1.66,13.18,3.35,26.37,5.02,39.55,1.5,11.84,2.96,23.69,4.48,35.53.57,4.45.64,4.48-3.84,5.5-6.13,1.39-12.28,2.7-18.77,4.13,0,2.67-.13,5.04.02,7.39.44,6.82,1.12,13.64,1.46,20.46.36,7.01.37,14.04.66,21.06.23,5.64.63,11.28.98,16.91.43,6.83.98,13.64,1.31,20.47.34,7.01.4,14.04.76,21.05.23,4.54.8,9.07,1.24,13.87,1.57-.35,2.91-.57,4.2-.94,9.38-2.67,18.81-5.19,28.11-8.09,68.97-21.52,137.95-42.99,206.85-64.72,56.17-17.72,112.24-35.75,168.34-53.68,44.03-14.07,88.05-28.21,132.07-42.32,5.83-1.87,11.65-3.76,17.67-5.7v-6.03c0-87.5,0-175,0-262.5,0-1.37.1-2.76-.03-4.12-.93-9.86-5.21-15.07-12.75-17.4-2.38-.74-5.03-.76-7.56-.76C975.32.06,497.87.06,20.42.06c-1.03,0-2.07.08-3.09-.01-3.24-.29-6.1.81-8.75,2.46C2.08,6.53,0,12.58,0,20.01c.06,256.5.05,513,.05,769.49v5.79ZM979.35,287.64c5.16-10.69,13.18-18.42,24.48-22.07,14.32-4.62,28.82-8.7,43.26-12.96,40.53-11.95,81.06-23.88,121.6-35.81,31.51-9.27,62.99-18.63,94.54-27.76,18.58-5.38,35.67,7.04,37.09,26.2.27,3.69-.55,7.47-.92,11.21-1.4,14.09-2.76,28.18-4.25,42.25-1.19,11.18-2.55,22.35-3.82,33.53-.32,2.85-.54,5.7-.78,8.26-8.86,3.76-259.94,77.31-264.08,77.34.72-23.4,1.44-46.79,2.18-71.03-17.57,4.05-34.43,7.94-50.89,11.74-.62-.43-.87-.52-.88-.63-1.46-13.56-3.86-27.17,2.46-40.26Z"/>
    <path d="M1472.44,483.08c-179.76,36.07-359.11,72.06-538.62,108.08-.13,1.9-.43,3.43-.31,4.93.83,10.21,1.76,20.42,2.62,30.63.66,7.82,1.27,15.65,1.88,23.48.55,6.98,1.04,13.97,1.63,20.95.68,8.16,1.47,16.32,2.14,24.48.57,6.98.99,13.98,1.58,20.96.64,7.48,1.46,14.95,2.11,22.43.71,8.16,1.29,16.34,1.96,24.5.61,7.49,1.31,14.96,1.89,22.45.56,7.16.93,14.33,1.54,21.48.66,7.65,1.6,15.28,2.24,22.93.91,10.89,1.58,21.8,2.49,32.7.86,10.38,1.99,20.73,2.83,31.11,1.1,13.62,1.99,27.25,3.05,40.87,1.15,14.82,2.37,29.63,3.62,44.44.12,1.47.68,2.91,1.1,4.6,8.43-1.09,16.5-2.13,24.76-3.19.51-4.75,1.11-9.13,1.42-13.52.82-11.76,1.48-23.54,2.25-35.31.29-4.43.71-8.85,1.06-13.28.67-8.51,1.37-17.02,1.98-25.54.58-8.18.98-16.38,1.6-24.56.65-8.51,1.59-17,2.21-25.52.87-11.93,1.47-23.88,2.35-35.81.87-11.75,2.06-23.48,2.91-35.23,1.11-15.34,2.05-30.69,3.04-46.04.29-4.44.47-8.88.73-13.32.49-8.37,1.09-16.73,1.49-25.11.37-7.69.52-15.4.82-23.1.18-4.62.38-9.24.7-13.85.45-6.48,1.12-12.94,1.51-19.42.37-6.15.45-12.31.77-18.46.09-1.66.6-3.3.92-5,83.5-18.18,166.74-36.31,250.84-54.63-1.88,21.51-4.14,42.25-6.42,62.91-6.3,1.29-12.08,2.48-17.59,3.61-2.11,22.32-4.3,43.88-6.13,65.47-1.84,21.68-4.31,43.31-5.77,65.15h16.5c.12,1.74.41,3.11.27,4.44-.86,8.48-1.84,16.96-2.73,25.44-.89,8.48-1.76,16.97-2.59,25.46-1.14,11.72-2.2,23.44-3.36,35.15-.83,8.49-1.79,16.96-2.63,25.45-.95,9.5-1.82,19.01-2.75,28.52-.84,8.66-1.73,17.31-2.56,25.97-.85,8.83-1.63,17.67-2.49,26.5-.89,9.16-1.87,18.32-2.78,27.48-.85,8.66-1.63,17.33-2.49,25.99-.89,8.99-1.89,17.98-2.77,26.98-.6,6.12-1.03,12.25-1.63,18.36-.66,6.79-1.43,13.56-2.15,20.35-.77,7.29-.87,14.72-2.42,21.84-3.28,15.05-11.76,25.99-26.96,30.92-17.1,5.55-34.15,11.23-51.23,16.84-57.1,18.74-114.21,37.45-171.31,56.2-5.63,1.85-11.27,2.46-17.18,1.38-12.76-2.34-24.3-13.91-25.89-26.73-.88-7.11-1.25-14.29-1.75-21.45-.78-11.08-1.51-22.17-2.22-33.25-.76-11.77-1.51-23.55-2.21-35.33-.56-9.56-.99-19.12-1.58-28.68-.92-15.01-1.93-30.02-2.9-45.03-.29-4.44-.55-8.88-.88-13.31-.48-6.64-1.02-13.28-1.5-19.92-.35-4.87-.66-9.74-1.01-14.97-1.72.53-2.84.84-3.93,1.23-41.4,14.95-82.78,29.94-124.21,44.81-3.13,1.12-5.14,2.98-6.82,5.7-41.83,67.42-83.69,134.81-125.56,202.2-14.47,23.29-28.73,46.71-43.53,69.78-16.51,25.74-49.36,37.15-79.43,25.8-22.43-8.47-45.01-16.5-67.54-24.71-54.71-19.93-109.43-39.84-164.13-59.78-44.26-16.13-88.49-32.32-132.75-48.46-45.2-16.49-90.41-32.95-135.61-49.41-8.02-2.92-16.05-5.82-24.85-9.01v6.64c0,110.84,0,221.67,0,332.51,0,1.37-.05,2.75.02,4.12.47,8.2,6.51,14.94,14.66,16.15,3.04.45,6.14.64,9.21.64,74.63.03,149.26.03,223.88.03,399.9,0,799.8,0,1199.7-.03,3.59,0,7.22-.13,10.75-.68,7.36-1.15,12.01-5.68,13.85-12.77.8-3.1.93-6.43.93-9.66.04-319.98.04-639.96.04-959.94,0-1.2.08-2.41-.03-3.6-.1-1.1-.4-2.17-.64-3.42Z"/>
  </g>
  <path d="M825.04,365.31c-1,5.57-2.31,13.3-3.78,21-5.7,29.79-11.46,59.57-17.2,89.35-1.55,8.03-3.09,16.06-4.62,24.1-1.1,5.81-4.48,10.06-9.57,12.66-36.33,18.51-72.74,36.9-109.1,55.35-3.79,1.92-7.6,2.05-11.33.22-5.76-2.82-8.12-9.9-5.4-15.84.64-1.39,1.46-2.72,2.3-4.01,27.29-42.12,54.58-84.23,81.88-126.35,14.72-22.71,29.45-45.4,44.11-68.15,2.73-4.24,6.31-7.12,11.14-8.5,9.54-2.73,22.58,4.5,21.57,20.16Z"/>
</svg>