<?xml version="1.0" encoding="UTF-8"?>
<svg id="Layer_2" xmlns="http://www.w3.org/2000/svg" viewBox="0 0 1103 1049.63">
  <defs>
    <style>
      .cls-1 {
        fill: #010101;
      }

      .cls-2 {
        fill: #231f20;
      }
    </style>
  </defs>
  <g id="Layer_1-2" data-name="Layer_1">
    <path class="cls-1" d="M1070.16,101.67l-471.03,128.31c-11.55,3.15-23.76-2-29.57-12.47l-65.62-118.22c-2.57-4.63-6.49-8.36-11.24-10.7L319.81,3.4c-14.36-7.07-31.71-2.82-41.19,10.07L5.97,385.04c-3.88,5.29-5.97,11.68-5.97,18.24v58.98c0,16.23,14.7,28.49,30.66,25.58l413.2-75.4c12.12-2.21,24.12,4.39,28.76,15.79l35.93,88.41c1.83,4.51,6.58,7.12,11.37,6.24l184.88-33.74c6.92-1.26,10.56-8.95,7.14-15.11l-38.1-68.66c-8.64-15.56.56-35,18.06-38.19l389.76-71.12c12.36-2.25,21.34-13.02,21.34-25.57V126.76c0-17.14-16.3-29.59-32.84-25.09ZM384.39,288.48l-199.36,54.3c-22.66,6.18-41.25-18.49-29.06-38.57l132.64-218.49c11.09-18.27,38.26-16.1,46.31,3.7l66.73,164.18c5.87,14.45-2.21,30.78-17.26,34.88Z"/>
    <path class="cls-1" d="M954.64,914.12l100.06-430.7c2.02-8.71-5.43-16.69-14.26-15.26l-146.45,23.74c-5.2.84-9.32,4.84-10.33,10.01l-36.76,188.73c-2.26,11.58-17.77,13.96-23.39,3.59l-87.29-161.05c-2.61-4.81-8.02-7.38-13.4-6.36l-189.12,35.9c-7.79,1.48-12.28,9.7-9.32,17.05l38.38,95.22c5.44,13.5-12.59,23.91-21.56,12.45l-167.62-214.17c-2.9-3.71-7.64-5.48-12.26-4.6l-187.47,35.85c-9.13,1.75-13.27,12.44-7.7,19.88l384.31,513.38c12.2,16.29,36.83,15.66,48.17-1.25l135.27-201.64c3.51-5.23,10.34-7.06,15.99-4.28l186.94,91.93c7.26,3.57,15.96-.55,17.79-8.44Z"/>
    <g>
      <path class="cls-2" d="M1018.47,932.62c-18.47,0-33.5-15.03-33.5-33.5s15.03-33.5,33.5-33.5,33.5,15.03,33.5,33.5-15.03,33.5-33.5,33.5ZM1018.47,875.39c-13.09,0-23.73,10.65-23.73,23.73s10.65,23.73,23.73,23.73,23.73-10.65,23.73-23.73-10.65-23.73-23.73-23.73Z"/>
      <path class="cls-2" d="M1027.07,885.86c5.48-.06,10.13,4.55,10.05,10.05,0,2-.53,3.82-1.6,5.44-1.05,1.6-2.45,2.83-4.2,3.64l5.8,7.46h-11.04l-5.01-6.49h-9.26v6.49h-10.37v-26.6h25.63ZM1011.81,893.64v4.53h12.65c.63,0,1.17-.22,1.6-.65.45-.46.67-.99.67-1.6,0-1.27-1.01-2.28-2.28-2.28h-12.65Z"/>
    </g>
  </g>
</svg>